<?xml version="1.0" standalone="no"?>
<!DOCTYPE svg PUBLIC "-//W3C//DTD SVG 20010904//EN"
 "http://www.w3.org/TR/2001/REC-SVG-20010904/DTD/svg10.dtd">
<svg version="1.0" xmlns="http://www.w3.org/2000/svg"
 width="323.000000pt" height="308.000000pt" viewBox="0 0 323.000000 308.000000"
 preserveAspectRatio="xMidYMid meet">

<g transform="translate(0.000000,308.000000) scale(0.100000,-0.100000)"
fill="#000000" stroke="none">
<path d="M354 2974 c-68 -33 -64 16 -64 -889 0 -890 -3 -851 57 -891 27 -18
69 -19 1253 -22 674 -2 1245 0 1269 3 32 5 54 16 78 40 l33 33 0 826 c0 913 3
868 -64 900 -31 15 -147 16 -1283 16 -1091 0 -1252 -2 -1279 -16z m2516 -764
l0 -660 -1235 0 -1235 0 0 660 0 660 1235 0 1235 0 0 -660z m-987 -801 c55
-25 55 -103 1 -128 -36 -16 -461 -15 -494 2 -55 28 -58 100 -6 125 30 15 468
15 499 1z"/>
<path d="M1389 1364 c-9 -11 -10 -20 -2 -32 9 -15 37 -17 248 -17 211 0 239 2
248 17 8 12 7 21 -2 32 -12 14 -46 16 -246 16 -200 0 -234 -2 -246 -16z"/>
<path d="M1366 1052 c-14 -42 -26 -80 -26 -85 0 -4 133 -7 295 -7 162 0 295 3
295 7 0 5 -12 43 -26 85 l-26 78 -243 0 -243 0 -26 -78z"/>
<path d="M970 889 c-65 -29 -120 -88 -120 -129 0 -7 245 -10 790 -10 l790 0
-19 38 c-25 48 -55 76 -111 101 -44 20 -62 21 -665 21 -603 0 -621 -1 -665
-21z"/>
<path d="M885 274 c-22 -22 -15 -36 26 -55 48 -23 45 -44 -6 -43 -34 1 -37 0
-18 -9 32 -14 73 -1 73 24 0 13 -11 25 -34 34 -19 8 -37 19 -41 24 -8 14 30
32 52 25 15 -5 15 -4 3 5 -21 15 -36 14 -55 -5z"/>
<path d="M1221 223 c1 -38 4 -58 6 -45 3 16 11 22 32 22 54 0 73 62 25 80 -58
22 -64 16 -63 -57z m53 47 c47 -17 29 -60 -25 -60 -14 0 -19 7 -19 28 0 25 7
42 16 42 1 0 14 -4 28 -10z"/>
<path d="M1390 225 l0 -65 43 2 42 1 -37 4 c-32 4 -38 8 -38 28 0 19 6 24 33
28 l32 4 -33 1 c-29 2 -33 5 -30 25 2 16 12 24 38 28 l35 6 -42 2 -43 1 0 -65z"/>
<path d="M1557 284 c-4 -4 -6 -35 -6 -68 1 -34 4 -51 6 -38 6 29 48 30 63 1 7
-11 14 -18 17 -15 3 3 0 12 -7 20 -10 13 -9 19 4 31 19 20 20 26 4 48 -14 18
-69 33 -81 21z m59 -14 c11 0 14 -8 12 -27 -2 -23 -8 -29 -35 -31 -30 -3 -33
-1 -33 26 0 33 8 45 28 37 7 -3 20 -5 28 -5z"/>
<path d="M1813 279 c13 -8 17 -23 17 -64 0 -30 5 -55 10 -55 6 0 10 26 10 59
0 48 3 60 18 64 9 3 -3 5 -28 6 -35 0 -41 -2 -27 -10z"/>
<path d="M1957 283 c-4 -3 -7 -33 -7 -65 l0 -58 48 2 47 1 -42 4 c-38 4 -43 7
-43 28 0 20 6 24 38 28 l37 4 -38 1 c-34 2 -38 5 -35 25 2 16 12 24 38 28 l35
6 -36 2 c-20 0 -39 -2 -42 -6z"/>
<path d="M2143 280 c-65 -26 -43 -120 27 -120 16 0 32 5 36 11 4 8 0 9 -15 4
-68 -21 -104 61 -41 95 14 8 26 8 40 0 14 -7 20 -7 20 0 0 5 -4 10 -9 10 -5 0
-15 2 -23 4 -7 3 -23 1 -35 -4z"/>
<path d="M1031 245 c0 -22 6 -51 15 -63 17 -25 56 -29 74 -7 17 21 26 105 11
105 -7 0 -11 -19 -11 -50 0 -45 -2 -50 -26 -56 -33 -9 -44 3 -53 62 l-9 49 -1
-40z"/>
<path d="M2280 220 c0 -33 4 -60 10 -60 6 0 10 14 10 30 0 28 2 30 39 30 37 0
40 -2 44 -32 2 -18 4 -4 4 32 0 36 -2 53 -4 38 -4 -25 -8 -28 -44 -28 -35 0
-39 3 -39 25 0 14 -4 25 -10 25 -6 0 -10 -27 -10 -60z"/>
</g>
</svg>
